<?xml version="1.0" standalone="no"?>
<!DOCTYPE svg PUBLIC "-//W3C//DTD SVG 20010904//EN"
 "http://www.w3.org/TR/2001/REC-SVG-20010904/DTD/svg10.dtd">
<svg version="1.0" xmlns="http://www.w3.org/2000/svg"
 width="256.000000pt" height="256.000000pt" viewBox="0 0 256.000000 256.000000"
 preserveAspectRatio="xMidYMid meet">
<metadata>
Created by potrace 1.11, written by Peter Selinger 2001-2013
</metadata>
<g transform="translate(0.000000,256.000000) scale(0.100000,-0.100000)"
fill="#000000" stroke="none">
<path d="M117 2542 c-3 -4 -5 -410 -5 -903 l1 -897 520 -348 c286 -192 533
-357 548 -367 l27 -18 1 905 0 905 -93 63 c-51 35 -99 68 -108 73 -8 6 -189
127 -402 270 -485 326 -484 326 -489 317z"/>
<path d="M2364 2487 c-44 -29 -284 -190 -534 -357 -250 -167 -457 -305 -460
-308 -3 -2 -6 -152 -6 -332 l-1 -329 56 36 c31 20 218 145 416 277 198 133
366 245 373 250 9 5 12 -14 12 -86 l0 -94 -429 -287 -428 -288 0 -109 0 -110
36 22 c20 12 124 81 231 152 179 119 548 361 578 380 9 5 12 -14 12 -86 l0
-93 -93 -61 c-50 -34 -243 -162 -427 -284 l-335 -221 -1 -275 c-1 -151 1 -274
4 -274 2 0 249 163 547 362 l542 362 0 903 c0 497 -3 903 -8 903 -4 0 -42 -24
-85 -53z"/>
</g>
</svg>
